<svg width="60" height="60" viewBox="0 0 60 60" fill="none" xmlns="http://www.w3.org/2000/svg">
<circle cx="22.5" cy="22.5" r="22.5" fill="#FF5762"/>
<path d="M33 35.25C33 35.25 29.4647 33.8588 26.6046 32.7444H14.5781C13.1544 32.7444 12 31.5204 12 30.0108V13.9836C12 12.474 13.1544 11.25 14.5781 11.25H30.4211C31.8448 11.25 32.9993 12.474 32.9993 13.9836V27.7868L33 35.25ZM29.8961 26.2636C29.6482 25.9579 29.2156 25.9225 28.9269 26.1844C28.9044 26.2044 26.6653 28.1956 22.4993 28.1956C18.3849 28.1956 16.1113 26.2188 16.0708 26.1828C15.7822 25.9222 15.3507 25.9579 15.1032 26.2628C14.9843 26.4094 14.9253 26.6005 14.9393 26.7937C14.9532 26.9869 15.039 27.1662 15.1775 27.2916C15.284 27.3876 17.8306 29.654 22.4993 29.654C27.1687 29.654 29.7153 27.3876 29.8218 27.2916C29.9601 27.1662 30.0456 26.9871 30.0596 26.7941C30.0735 26.6011 30.0147 26.4101 29.8961 26.2636Z" fill="white"/>
<path d="M33 35.25C33 35.25 29.4647 33.8588 26.6046 32.7444H14.5781C13.1544 32.7444 12 31.5204 12 30.0108V13.9836C12 12.474 13.1544 11.25 14.5781 11.25H30.4211C31.8448 11.25 32.9993 12.474 32.9993 13.9836V27.7868L33 35.25ZM29.8961 26.2636C29.6482 25.9579 29.2156 25.9225 28.9269 26.1844C28.9044 26.2044 26.6653 28.1956 22.4993 28.1956C18.3849 28.1956 16.1113 26.2188 16.0708 26.1828C15.7822 25.9222 15.3507 25.9579 15.1032 26.2628C14.9843 26.4094 14.9253 26.6005 14.9393 26.7937C14.9532 26.9869 15.039 27.1662 15.1775 27.2916C15.284 27.3876 17.8306 29.654 22.4993 29.654C27.1687 29.654 29.7153 27.3876 29.8218 27.2916C29.9601 27.1662 30.0456 26.9871 30.0596 26.7941C30.0735 26.6011 30.0147 26.4101 29.8961 26.2636Z" fill="white"/>
</svg>
